<svg width="27" height="27" viewBox="0 0 27 27" fill="none" xmlns="http://www.w3.org/2000/svg">
<g clip-path="url(#clip0_138_80)">
<path d="M13.5 3.375C7.90875 3.375 3.375 7.90875 3.375 13.5C3.375 19.0912 7.90875 23.625 13.5 23.625C14.4337 23.625 15.1875 22.8712 15.1875 21.9375C15.1875 21.4988 15.0187 21.105 14.7487 20.8012C14.49 20.5087 14.3212 20.115 14.3212 19.6875C14.3212 18.7538 15.075 18 16.0087 18H18C21.105 18 23.625 15.48 23.625 12.375C23.625 7.4025 19.0912 3.375 13.5 3.375ZM7.3125 13.5C6.37875 13.5 5.625 12.7462 5.625 11.8125C5.625 10.8788 6.37875 10.125 7.3125 10.125C8.24625 10.125 9 10.8788 9 11.8125C9 12.7462 8.24625 13.5 7.3125 13.5ZM10.6875 9C9.75375 9 9 8.24625 9 7.3125C9 6.37875 9.75375 5.625 10.6875 5.625C11.6212 5.625 12.375 6.37875 12.375 7.3125C12.375 8.24625 11.6212 9 10.6875 9ZM16.3125 9C15.3788 9 14.625 8.24625 14.625 7.3125C14.625 6.37875 15.3788 5.625 16.3125 5.625C17.2462 5.625 18 6.37875 18 7.3125C18 8.24625 17.2462 9 16.3125 9ZM19.6875 13.5C18.7538 13.5 18 12.7462 18 11.8125C18 10.8788 18.7538 10.125 19.6875 10.125C20.6212 10.125 21.375 10.8788 21.375 11.8125C21.375 12.7462 20.6212 13.5 19.6875 13.5Z" fill="#C2C2C2"/>
</g>
<defs>
<clipPath id="clip0_138_80">
<rect width="27" height="27" fill="white"/>
</clipPath>
</defs>
</svg>
