<svg width="28" height="28" viewBox="0 0 28 28" fill="none" xmlns="http://www.w3.org/2000/svg">
<g clip-path="url(#clip0_138_130)">
<path d="M14 2.33337C9.48504 2.33337 5.83337 5.98504 5.83337 10.5C5.83337 12.53 6.41671 14.4317 7.47837 16.1467C8.58671 17.9434 10.045 19.4834 11.165 21.28C11.7134 22.155 12.11 22.9717 12.53 23.9167C12.8334 24.5584 13.0784 25.6667 14 25.6667C14.9217 25.6667 15.1667 24.5584 15.4584 23.9167C15.89 22.9717 16.275 22.155 16.8234 21.28C17.9434 19.495 19.4017 17.955 20.51 16.1467C21.5834 14.4317 22.1667 12.53 22.1667 10.5C22.1667 5.98504 18.515 2.33337 14 2.33337ZM14 13.7084C12.39 13.7084 11.0834 12.4017 11.0834 10.7917C11.0834 9.18171 12.39 7.87504 14 7.87504C15.61 7.87504 16.9167 9.18171 16.9167 10.7917C16.9167 12.4017 15.61 13.7084 14 13.7084Z" fill="white" fill-opacity="0.79"/>
</g>
<defs>
<clipPath id="clip0_138_130">
<rect width="28" height="28" fill="white"/>
</clipPath>
</defs>
</svg>
