<svg width="28" height="28" viewBox="0 0 28 28" fill="none" xmlns="http://www.w3.org/2000/svg">
<g clip-path="url(#clip0_138_45)">
<path d="M22.1667 8.16671V11.655C22.1667 11.655 19.845 11.6667 19.8333 11.655V8.16671H16.3333C16.3333 8.16671 16.345 5.84504 16.3333 5.83337H19.8333V2.33337H22.1667V5.83337H25.6667V8.16671H22.1667ZM18.6667 12.8334V9.33337H15.1667V5.83337H5.83333C4.55 5.83337 3.5 6.88337 3.5 8.16671V22.1667C3.5 23.45 4.55 24.5 5.83333 24.5H19.8333C21.1167 24.5 22.1667 23.45 22.1667 22.1667V12.8334H18.6667ZM5.83333 22.1667L9.33333 17.5L11.6667 21L15.1667 16.3334L19.8333 22.1667H5.83333Z" fill="#C2C2C2"/>
</g>
<defs>
<clipPath id="clip0_138_45">
<rect width="28" height="28" fill="white"/>
</clipPath>
</defs>
</svg>
