<svg width="25" height="25" viewBox="0 0 25 25" fill="none" xmlns="http://www.w3.org/2000/svg">
<g clip-path="url(#clip0_138_160)">
<path d="M19.7917 3.12496H15.4375C15 1.91663 13.8542 1.04163 12.5 1.04163C11.1458 1.04163 10 1.91663 9.5625 3.12496H5.20833C4.0625 3.12496 3.125 4.06246 3.125 5.20829V19.7916C3.125 20.9375 4.0625 21.875 5.20833 21.875H19.7917C20.9375 21.875 21.875 20.9375 21.875 19.7916V5.20829C21.875 4.06246 20.9375 3.12496 19.7917 3.12496ZM12.5 3.12496C13.0729 3.12496 13.5417 3.59371 13.5417 4.16663C13.5417 4.73954 13.0729 5.20829 12.5 5.20829C11.9271 5.20829 11.4583 4.73954 11.4583 4.16663C11.4583 3.59371 11.9271 3.12496 12.5 3.12496ZM14.5833 17.7083H7.29167V15.625H14.5833V17.7083ZM17.7083 13.5416H7.29167V11.4583H17.7083V13.5416ZM17.7083 9.37496H7.29167V7.29163H17.7083V9.37496Z" fill="white" fill-opacity="0.81"/>
</g>
<defs>
<clipPath id="clip0_138_160">
<rect width="25" height="25" fill="white"/>
</clipPath>
</defs>
</svg>
