<svg width="34" height="30" viewBox="0 0 34 30" fill="none" xmlns="http://www.w3.org/2000/svg">
<path d="M28.0206 5.625H21.9801V4.21875C21.9801 3.59715 21.7149 3.00101 21.2429 2.56147C20.7709 2.12193 20.1307 1.875 19.4632 1.875H14.4294C13.7619 1.875 13.1217 2.12193 12.6497 2.56147C12.1777 3.00101 11.9125 3.59715 11.9125 4.21875V5.625H5.87199C5.60498 5.625 5.34891 5.72377 5.16011 5.89959C4.9713 6.0754 4.86523 6.31386 4.86523 6.5625C4.86523 6.81114 4.9713 7.0496 5.16011 7.22541C5.34891 7.40123 5.60498 7.5 5.87199 7.5H6.94167L8.13719 25.3664C8.22654 26.9396 9.52148 28.125 11.1575 28.125H22.7351C24.3793 28.125 25.6484 26.966 25.7554 25.3711L26.9509 7.5H28.0206C28.2876 7.5 28.5437 7.40123 28.7325 7.22541C28.9213 7.0496 29.0274 6.81114 29.0274 6.5625C29.0274 6.31386 28.9213 6.0754 28.7325 5.89959C28.5437 5.72377 28.2876 5.625 28.0206 5.625ZM12.9551 24.375H12.9193C12.6584 24.3752 12.4076 24.281 12.2198 24.1123C12.032 23.9437 11.9218 23.7137 11.9125 23.4709L11.4091 10.3459C11.3996 10.0973 11.4966 9.85528 11.6787 9.6732C11.8607 9.49112 12.113 9.38386 12.38 9.375C12.647 9.36614 12.9069 9.45642 13.1024 9.62597C13.2979 9.79552 13.4131 10.0305 13.4227 10.2791L13.926 23.4041C13.9308 23.5272 13.9095 23.65 13.8633 23.7655C13.8171 23.881 13.7469 23.9868 13.6567 24.077C13.5665 24.1671 13.4582 24.2399 13.3378 24.291C13.2174 24.3422 13.0874 24.3707 12.9551 24.375ZM17.953 23.4375C17.953 23.6861 17.847 23.9246 17.6582 24.1004C17.4694 24.2762 17.2133 24.375 16.9463 24.375C16.6793 24.375 16.4232 24.2762 16.2344 24.1004C16.0456 23.9246 15.9395 23.6861 15.9395 23.4375V10.3125C15.9395 10.0639 16.0456 9.8254 16.2344 9.64959C16.4232 9.47377 16.6793 9.375 16.9463 9.375C17.2133 9.375 17.4694 9.47377 17.6582 9.64959C17.847 9.8254 17.953 10.0639 17.953 10.3125V23.4375ZM19.9666 5.625H13.926V4.21875C13.9253 4.157 13.9378 4.09572 13.9628 4.03853C13.9878 3.98134 14.0249 3.92939 14.0718 3.88572C14.1187 3.84205 14.1745 3.80755 14.2359 3.78424C14.2973 3.76094 14.3631 3.74929 14.4294 3.75H19.4632C19.5295 3.74929 19.5953 3.76094 19.6567 3.78424C19.7181 3.80755 19.7739 3.84205 19.8208 3.88572C19.8677 3.92939 19.9048 3.98134 19.9298 4.03853C19.9548 4.09572 19.9673 4.157 19.9666 4.21875V5.625ZM21.9801 23.4709C21.9708 23.7137 21.8606 23.9437 21.6728 24.1123C21.485 24.281 21.2342 24.3752 20.9733 24.375H20.9368C20.8046 24.3706 20.6747 24.342 20.5544 24.2908C20.4341 24.2397 20.3258 24.1669 20.2357 24.0768C20.1455 23.9866 20.0754 23.8808 20.0292 23.7654C19.9831 23.6499 19.9618 23.5272 19.9666 23.4041L20.4699 10.2791C20.4746 10.156 20.5054 10.0349 20.5603 9.92288C20.6152 9.81081 20.6934 9.70992 20.7902 9.62597C20.887 9.54202 21.0006 9.47664 21.1246 9.43358C21.2485 9.39052 21.3803 9.37061 21.5126 9.375C21.6448 9.37939 21.7748 9.40798 21.8951 9.45914C22.0154 9.51031 22.1238 9.58305 22.2139 9.6732C22.3041 9.76336 22.3743 9.86917 22.4205 9.98459C22.4668 10.1 22.4882 10.2228 22.4834 10.3459L21.9801 23.4709Z" fill="#E3484B"/>
</svg>
